<?xml version="1.0" encoding="UTF-8"?>
<svg id="Layer_1" data-name="Layer 1" xmlns="http://www.w3.org/2000/svg" xmlns:xlink="http://www.w3.org/1999/xlink" viewBox="0 0 16 16">
  <defs>
    <style>
      .cls-1 {
        fill: #fff;
      }

      .cls-2 {
        fill: url(#New_Gradient_Swatch_1);
      }
    </style>
    <linearGradient id="New_Gradient_Swatch_1" data-name="New Gradient Swatch 1" x1="8" y1=".15" x2="8" y2="16.15" gradientUnits="userSpaceOnUse">
      <stop offset="0" stop-color="#39c"/>
      <stop offset="1" stop-color="#324669"/>
    </linearGradient>
  </defs>
  <rect class="cls-2" width="16" height="16"/>
  <g>
    <path class="cls-1" d="M7.34,7.29c0,.38.31.69.69.69s.69-.31.69-.69c0-.04,0-.08-.01-.12-.07.09-.18.15-.3.15-.21,0-.38-.17-.38-.38,0-.13.07-.25.17-.31-.05-.01-.11-.02-.17-.02-.38,0-.69.31-.69.69Z"/>
    <path class="cls-1" d="M12.2,6.31c-.26,0-.51.07-.72.2l-.83-.83c-.09-.09-.21-.14-.34-.14h-2.52l-1.89-1.89c-.08-.08-.2-.08-.28,0-.08.08-.08.2,0,.28l1.61,1.61h-.51l-1.89-1.89c-.08-.08-.2-.08-.28,0-.08.08-.08.2,0,.28l1.61,1.61h-.37s-.08,0-.13,0l-1.9-1.9c-.08-.08-.2-.08-.28,0-.08.08-.08.2,0,.28l1.78,1.78s-.08.06-.11.09l-.69.69c-.2-.12-.44-.18-.69-.18-.76,0-1.38.62-1.38,1.38s.62,1.38,1.38,1.38c.09,0,.17,0,.26-.02l1.14,1.14c-.18.23-.28.52-.28.84,0,.76.62,1.38,1.38,1.38s1.38-.62,1.38-1.38-.62-1.38-1.38-1.38c-.31,0-.59.1-.82.27l-1.02-1.02c.43-.24.72-.69.72-1.21,0-.37-.15-.71-.39-.96l.65-.65c.09-.09.22-.15.36-.15h1.67c-.54.22-.91.74-.91,1.36,0,.81.66,1.47,1.47,1.47s1.47-.66,1.47-1.47c0-.61-.38-1.14-.91-1.36h1.73s.05,0,.06.03l.81.81c-.22.25-.36.57-.36.93,0,.76.62,1.38,1.38,1.38s1.38-.62,1.38-1.38-.62-1.38-1.38-1.38ZM7.29,11.02c0,.55-.44.99-.99.99s-.99-.44-.99-.99.44-.99.99-.99.99.44.99.99ZM3.8,8.68c-.55,0-.99-.44-.99-.99s.44-.99.99-.99.99.44.99.99-.44.99-.99.99ZM9.1,7.29c0,.59-.48,1.08-1.08,1.08s-1.08-.48-1.08-1.08.48-1.08,1.08-1.08,1.08.48,1.08,1.08ZM12.2,8.68c-.55,0-.99-.44-.99-.99s.44-.99.99-.99.99.44.99.99-.44.99-.99.99Z"/>
  </g>
</svg>