<?xml version="1.0" encoding="UTF-8"?>
<svg id="Layer_1" data-name="Layer 1" xmlns="http://www.w3.org/2000/svg" xmlns:xlink="http://www.w3.org/1999/xlink" viewBox="0 0 32 32">
  <defs>
    <style>
      .cls-1 {
        fill: #fff;
      }

      .cls-2 {
        fill: url(#New_Gradient_Swatch_1);
      }
    </style>
    <linearGradient id="New_Gradient_Swatch_1" data-name="New Gradient Swatch 1" x1="16" y1=".3" x2="16" y2="32.3" gradientUnits="userSpaceOnUse">
      <stop offset="0" stop-color="#39c"/>
      <stop offset="1" stop-color="#324669"/>
    </linearGradient>
  </defs>
  <rect class="cls-2" width="32" height="32"/>
  <g>
    <path class="cls-1" d="M14.64,14.53c0,.78.64,1.42,1.42,1.42s1.42-.64,1.42-1.42c0-.08,0-.17-.02-.24-.14.18-.37.3-.62.3-.43,0-.78-.35-.78-.78,0-.27.14-.51.35-.65-.11-.03-.23-.04-.35-.04-.78,0-1.42.64-1.42,1.42Z"/>
    <path class="cls-1" d="M24.7,12.49c-.55,0-1.06.15-1.5.42l-1.72-1.72c-.19-.19-.44-.29-.7-.29h-5.22l-3.91-3.91c-.16-.16-.41-.16-.57,0-.16.16-.16.41,0,.57l3.34,3.34h-1.06l-3.91-3.91c-.16-.16-.41-.16-.57,0-.16.16-.16.41,0,.57l3.34,3.34h-.76c-.09,0-.17,0-.26.02l-3.93-3.93c-.16-.16-.41-.16-.57,0-.16.16-.16.41,0,.57l3.68,3.68c-.08.06-.16.12-.23.2l-1.42,1.42c-.42-.24-.9-.38-1.42-.38-1.58,0-2.86,1.28-2.86,2.86s1.28,2.86,2.86,2.86c.18,0,.36-.02.54-.05l2.37,2.37c-.37.48-.59,1.08-.59,1.73,0,1.58,1.28,2.86,2.86,2.86s2.86-1.28,2.86-2.86-1.28-2.86-2.86-2.86c-.64,0-1.22.21-1.7.56l-2.1-2.1c.88-.49,1.48-1.43,1.48-2.51,0-.77-.3-1.47-.8-1.98l1.35-1.35c.2-.2.46-.3.74-.3h3.47c-1.11.45-1.89,1.54-1.89,2.81,0,1.68,1.36,3.03,3.03,3.03s3.03-1.36,3.03-3.03c0-1.27-.78-2.36-1.89-2.81h3.58s.09.02.13.05l1.67,1.67c-.46.51-.74,1.18-.74,1.92,0,1.58,1.28,2.86,2.86,2.86s2.86-1.28,2.86-2.86-1.28-2.86-2.86-2.86ZM14.53,22.26c0,1.13-.92,2.05-2.05,2.05s-2.05-.92-2.05-2.05.92-2.05,2.05-2.05,2.05.92,2.05,2.05ZM7.3,17.4c-1.13,0-2.05-.92-2.05-2.05s.92-2.05,2.05-2.05,2.05.92,2.05,2.05-.92,2.05-2.05,2.05ZM18.28,14.53c0,1.23-1,2.23-2.23,2.23s-2.23-1-2.23-2.23,1-2.23,2.23-2.23,2.23,1,2.23,2.23ZM24.7,17.4c-1.13,0-2.05-.92-2.05-2.05s.92-2.05,2.05-2.05,2.05.92,2.05,2.05-.92,2.05-2.05,2.05Z"/>
  </g>
</svg>