<?xml version="1.0" encoding="UTF-8"?>
<svg id="Layer_1" data-name="Layer 1" xmlns="http://www.w3.org/2000/svg" viewBox="0 0 48 48">
  <defs>
    <style>
      .cls-1 {
        fill: #fff;
      }
    </style>
  </defs>
  <path class="cls-1" d="M22.02,21.85c0,1.14.93,2.07,2.07,2.07s2.07-.93,2.07-2.07c0-.12-.01-.24-.03-.36-.21.27-.53.44-.9.44-.63,0-1.14-.51-1.14-1.14,0-.4.2-.75.51-.95-.16-.04-.33-.06-.51-.06-1.14,0-2.07.93-2.07,2.07Z"/>
  <path class="cls-1" d="M36.66,18.89c-.8,0-1.54.23-2.18.62l-2.51-2.51c-.27-.27-.63-.42-1.02-.42h-7.6l-5.69-5.69c-.23-.23-.6-.23-.83,0-.23.23-.23.6,0,.83l4.86,4.86h-1.55l-5.69-5.69c-.23-.23-.6-.23-.83,0-.23.23-.23.6,0,.83l4.86,4.86h-1.11c-.13,0-.25,0-.38.03l-5.72-5.72c-.23-.23-.6-.23-.83,0-.23.23-.23.6,0,.83l5.36,5.36c-.12.09-.23.18-.34.29l-2.07,2.07c-.61-.35-1.31-.55-2.07-.55-2.3,0-4.16,1.87-4.16,4.16s1.87,4.16,4.16,4.16c.27,0,.53-.03.78-.07l3.45,3.45c-.54.7-.85,1.58-.85,2.52,0,2.3,1.87,4.16,4.16,4.16s4.16-1.87,4.16-4.16-1.87-4.16-4.16-4.16c-.92,0-1.78.3-2.47.82l-3.06-3.06c1.29-.71,2.16-2.08,2.16-3.65,0-1.12-.44-2.14-1.16-2.88l1.97-1.97c.29-.29.67-.44,1.07-.44h5.05c-1.62.66-2.76,2.24-2.76,4.09,0,2.44,1.98,4.42,4.42,4.42s4.42-1.98,4.42-4.42c0-1.85-1.14-3.44-2.76-4.09h5.22c.07,0,.14.03.19.08l2.43,2.43c-.67.74-1.08,1.72-1.08,2.79,0,2.3,1.87,4.16,4.16,4.16s4.16-1.87,4.16-4.16-1.87-4.16-4.16-4.16ZM21.86,33.12c0,1.65-1.34,2.99-2.99,2.99s-2.99-1.34-2.99-2.99,1.34-2.99,2.99-2.99,2.99,1.34,2.99,2.99ZM11.34,26.05c-1.65,0-2.99-1.34-2.99-2.99s1.34-2.99,2.99-2.99,2.99,1.34,2.99,2.99-1.34,2.99-2.99,2.99ZM27.33,21.85c0,1.79-1.45,3.24-3.24,3.24s-3.24-1.45-3.24-3.24,1.45-3.24,3.24-3.24,3.24,1.45,3.24,3.24ZM36.66,26.05c-1.65,0-2.99-1.34-2.99-2.99s1.34-2.99,2.99-2.99,2.99,1.34,2.99,2.99-1.34,2.99-2.99,2.99Z"/>
</svg>
