<?xml version="1.0" encoding="UTF-8"?>
<svg id="Layer_1" data-name="Layer 1" xmlns="http://www.w3.org/2000/svg" xmlns:xlink="http://www.w3.org/1999/xlink" viewBox="0 0 180 180">
  <defs>
    <style>
      .cls-1 {
        fill: #fff;
      }

      .cls-2 {
        fill: url(#New_Gradient_Swatch_1);
      }
    </style>
    <linearGradient id="New_Gradient_Swatch_1" data-name="New Gradient Swatch 1" x1="90" y1="1.67" x2="90" y2="181.67" gradientUnits="userSpaceOnUse">
      <stop offset="0" stop-color="#39c"/>
      <stop offset="1" stop-color="#324669"/>
    </linearGradient>
  </defs>
  <rect class="cls-2" width="180" height="180"/>
  <g>
    <path class="cls-1" d="M82.24,81.6c0,4.47,3.62,8.09,8.09,8.09s8.09-3.62,8.09-8.09c0-.48-.04-.94-.12-1.39-.81,1.05-2.09,1.72-3.51,1.72-2.46,0-4.45-1.99-4.45-4.45,0-1.55.79-2.92,2-3.71-.64-.16-1.31-.25-2-.25-4.47,0-8.09,3.62-8.09,8.09Z"/>
    <path class="cls-1" d="M139.53,70.03c-3.12,0-6.04.88-8.52,2.41l-9.8-9.8c-1.07-1.07-2.48-1.65-3.99-1.65h-29.74l-22.27-22.27c-.9-.9-2.35-.9-3.25,0-.9.9-.9,2.35,0,3.25l19.02,19.02h-6.06l-22.27-22.27c-.9-.9-2.35-.9-3.25,0-.9.9-.9,2.35,0,3.25l19.02,19.02h-4.32c-.5,0-.99.04-1.47.1l-22.37-22.37c-.9-.9-2.35-.9-3.25,0-.9.9-.9,2.35,0,3.25l20.98,20.98c-.47.33-.91.71-1.32,1.12l-8.11,8.11c-2.38-1.37-5.14-2.15-8.08-2.15-8.98,0-16.29,7.31-16.29,16.29s7.31,16.29,16.29,16.29c1.04,0,2.06-.1,3.05-.29l13.49,13.49c-2.1,2.74-3.34,6.16-3.34,9.87,0,8.98,7.31,16.29,16.29,16.29s16.29-7.31,16.29-16.29-7.31-16.29-16.29-16.29c-3.62,0-6.96,1.19-9.67,3.19l-11.98-11.98c5.04-2.77,8.46-8.13,8.46-14.28,0-4.38-1.74-8.36-4.55-11.29l7.71-7.71c1.12-1.12,2.61-1.73,4.19-1.73h19.74c-6.33,2.57-10.79,8.77-10.79,16.02,0,9.54,7.74,17.28,17.28,17.28s17.28-7.74,17.28-17.28c0-7.25-4.46-13.45-10.79-16.02h20.41c.28,0,.54.11.74.31l9.5,9.5c-2.62,2.89-4.22,6.73-4.22,10.93,0,8.98,7.31,16.29,16.29,16.29s16.29-7.31,16.29-16.29-7.31-16.29-16.29-16.29ZM81.64,125.67c0,6.45-5.24,11.69-11.69,11.69s-11.69-5.24-11.69-11.69,5.24-11.69,11.69-11.69,11.69,5.24,11.69,11.69ZM40.47,98c-6.45,0-11.69-5.24-11.69-11.69s5.24-11.69,11.69-11.69,11.69,5.24,11.69,11.69-5.24,11.69-11.69,11.69ZM103.01,81.6c0,7-5.68,12.68-12.68,12.68s-12.68-5.68-12.68-12.68,5.68-12.68,12.68-12.68,12.68,5.68,12.68,12.68ZM139.53,98c-6.45,0-11.69-5.24-11.69-11.69s5.24-11.69,11.69-11.69,11.69,5.24,11.69,11.69-5.24,11.69-11.69,11.69Z"/>
  </g>
</svg>